2.5Hzlow3min_grf.mot
version=1
nRows=22
nColumns 19
inDegrees=yes
endheader
time	1_ground_force_vx	1_ground_force_vy	1_ground_force_vz	1_ground_force_px	1_ground_force_py	1_ground_force_pz	1_ground_torque_x	1_ground_torque_y	1_ground_torque_z	2_ground_force_vx	2_ground_force_vy	2_ground_force_vz	2_ground_force_px	2_ground_force_py	2_ground_force_pz	2_ground_torque_x	2_ground_torque_y	2_ground_torque_z
            0.005000	            0.504822	            1.981447	            0.374098	           -0.134482	            0.006240	           -0.404989	            0.058006	           -0.332022	           -0.092925	           -0.044548	           -0.555125	            0.701970	           -0.202803	            0.005705	           -0.684758	           -0.225268	           -0.066311	           -0.188642
            0.005500	            0.092412	            2.882106	            0.516555	           -0.134482	            0.006240	           -0.404989	            0.220500	           -0.008818	           -0.071971	            0.372408	            0.735771	            0.612534	           -0.202803	            0.005705	           -0.684758	           -0.187467	           -0.132277	           -0.207745
            0.006000	            0.275265	            1.981993	            0.237099	           -0.134482	            0.006240	           -0.404989	            0.101430	            0.222238	           -0.044035	            0.610584	           -0.367771	            0.467708	           -0.202803	            0.005705	           -0.684758	           -0.205904	           -0.217755	           -0.113789
            0.006500	            0.136760	            2.344070	           -0.127861	           -0.134482	            0.006240	           -0.404989	            0.135778	            0.258820	            0.025352	            0.848136	           -1.287500	            0.417395	           -0.202803	            0.005705	           -0.684758	           -0.187093	           -0.227072	           -0.132681
            0.007000	            0.044993	            2.163983	           -0.174262	           -0.134482	            0.006240	           -0.404989	            0.175308	           -0.092224	           -0.036549	            0.702790	            0.002203	            0.093557	           -0.202803	            0.005705	           -0.684758	           -0.281291	           -0.160974	           -0.207806
            0.007500	           -0.046190	            2.523514	            0.056791	           -0.134482	            0.006240	           -0.404989	            0.090472	           -0.296032	            0.052856	            0.701481	            0.370332	            0.141800	           -0.202803	            0.005705	           -0.684758	           -0.206286	           -0.122892	           -0.207703
            0.008000	            0.000078	            1.441536	            0.143751	           -0.134482	            0.006240	           -0.404989	            0.143463	           -0.434407	           -0.002270	            0.420402	            0.369150	            0.188847	           -0.202803	            0.005705	           -0.684758	           -0.281863	           -0.000345	           -0.188382
            0.008500	            0.091959	            1.621426	            0.236009	           -0.134482	            0.006240	           -0.404989	            0.214501	           -0.249480	            0.002250	            0.464820	            1.104071	            0.707665	           -0.202803	            0.005705	           -0.684758	           -0.187859	           -0.028162	           -0.245074
            0.009000	            0.413217	            2.161498	            0.420955	           -0.134482	            0.006240	           -0.404989	            0.055999	            0.028188	           -0.038897	            0.372387	            0.735938	            0.565606	           -0.202803	            0.005705	           -0.684758	           -0.168741	           -0.113371	           -0.188835
            0.009500	            0.367796	            2.340969	            0.605265	           -0.134482	            0.006240	           -0.404989	            0.160456	            0.287331	           -0.115199	            0.561178	            0.367816	            0.704997	           -0.202803	            0.005705	           -0.684758	           -0.224995	           -0.141932	           -0.188912
            0.010000	            0.320245	            2.343909	           -0.082460	           -0.134482	            0.006240	           -0.404989	            0.208521	            0.204185	           -0.136427	            0.563651	           -0.367271	            0.280015	           -0.202803	            0.005705	           -0.684758	           -0.187347	           -0.169953	           -0.245580
            0.010500	            0.366334	            1.622659	           -0.039809	           -0.134482	            0.006240	           -0.404989	            0.094602	           -0.128819	           -0.079198	            0.655337	            0.185680	            0.235019	           -0.202803	            0.005705	           -0.684758	           -0.281206	           -0.180014	           -0.170173
            0.011000	           -0.183752	            2.703753	            0.057905	           -0.134482	            0.006240	           -0.404989	            0.184354	           -0.361023	            0.102868	            0.655254	            0.186349	            0.047306	           -0.202803	            0.005705	           -0.684758	           -0.187696	           -0.075359	           -0.264093
            0.011500	            0.182489	            2.344276	           -0.173830	           -0.134482	            0.006240	           -0.404989	            0.269499	           -0.416307	            0.118070	            0.518110	           -0.735569	            0.231793	           -0.202803	            0.005705	           -0.684758	           -0.281598	           -0.075899	           -0.207502
            0.012000	            0.046161	            3.243218	            0.380647	           -0.134482	            0.006240	           -0.404989	            0.151396	           -0.166559	            0.057144	            0.233770	            0.183488	            0.422910	           -0.202803	            0.005705	           -0.684758	           -0.281684	           -0.047676	           -0.169701
            0.012500	            0.138614	            2.160659	            0.605061	           -0.134482	            0.006240	           -0.404989	            0.198589	            0.120046	            0.062203	            0.654213	            0.552303	            0.705614	           -0.202803	            0.005705	           -0.684758	           -0.243815	           -0.132547	           -0.188870
            0.013000	            0.642333	            2.702340	            0.422705	           -0.134482	            0.006240	           -0.404989	            0.149687	            0.222100	            0.046649	            0.420587	            0.367643	            0.611200	           -0.202803	            0.005705	           -0.684758	           -0.168605	           -0.151181	           -0.188970
            0.013500	            0.458847	            2.702501	            0.377304	           -0.134482	            0.006240	           -0.404989	            0.113869	            0.093003	           -0.055625	            0.513663	            0.551795	            0.705674	           -0.202803	            0.005705	           -0.684758	           -0.206023	           -0.189262	           -0.151388
            0.014000	            0.183384	            1.802102	            0.144842	           -0.134482	            0.006240	           -0.404989	            0.161934	           -0.203154	           -0.012316	            0.656666	           -0.182617	            0.233704	           -0.202803	            0.005705	           -0.684758	           -0.225046	           -0.132345	           -0.226579
            0.014500	            0.137020	            2.163411	           -0.036922	           -0.134482	            0.006240	           -0.404989	            0.094511	           -0.388143	            0.003888	            0.611145	           -0.551083	            0.232410	           -0.202803	            0.005705	           -0.684758	           -0.187782	           -0.047135	           -0.226291
            0.015000	           -0.000527	            2.884251	            0.012367	           -0.134482	            0.006240	           -0.404989	            0.110796	           -0.351147	           -0.020681	            0.605164	            1.106252	            0.238324	           -0.202803	            0.005705	           -0.684758	           -0.187859	           -0.028162	           -0.245074
            0.015500	           -0.046369	            2.884242	            0.012481	           -0.134482	            0.006240	           -0.404989	            0.185836	           -0.110825	           -0.021792	            0.748392	            0.369999	            0.282564	           -0.202803	            0.005705	           -0.684758	           -0.262779	           -0.085284	           -0.207544
